HIERARCHY
ROOT Pelvis
{
	OFFSET 0.000000 0.000000 0.000000
	CHANNELS 6 Xposition Yposition Zposition Xrotation Yrotation Zrotation
	JOINT LeftUpLeg_virtual
	{
		OFFSET 0.000000 0.000000 0.000000
		CHANNELS 3 Xrotation Yrotation Zrotation
		JOINT LeftUpLeg
		{
			OFFSET 18.735201 -5.666702 -4.541200
			CHANNELS 3 Xrotation Yrotation Zrotation
			JOINT LeftLeg
			{
				OFFSET -0.021200 -31.938179 0.493100
				CHANNELS 3 Xrotation Yrotation Zrotation
				JOINT LeftFoot
				{
					OFFSET 0.021200 -31.938179 -4.336299
					CHANNELS 3 Xrotation Yrotation Zrotation
					JOINT LeftToeBase
					{
						OFFSET 0.943001 -26.722000 15.023500
						CHANNELS 3 Xrotation Yrotation Zrotation
						End Site
						{
							OFFSET 0 0 0
						}
					}
				}
			}
		}
	}
	JOINT RightUpLeg_virtual
	{
		OFFSET 0.000000 0.000000 0.000000
		CHANNELS 3 Xrotation Yrotation Zrotation
		JOINT RightUpLeg
		{
			OFFSET -18.735201 -5.666702 -4.541200
			CHANNELS 3 Xrotation Yrotation Zrotation
			JOINT RightLeg
			{
				OFFSET 0.018946 -31.938133 0.493100
				CHANNELS 3 Xrotation Yrotation Zrotation
				JOINT RightFoot
				{
					OFFSET -0.018946 -31.938126 -4.336299
					CHANNELS 3 Xrotation Yrotation Zrotation
					JOINT RightToeBase
					{
						OFFSET -0.943001 -26.722004 15.023500
						CHANNELS 3 Xrotation Yrotation Zrotation
						End Site
						{
							OFFSET 0 0 0
						}
					}
				}
			}
		}
	}
	JOINT Hips_virtual
	{
		OFFSET 0.000000 0.000000 0.000000
		CHANNELS 3 Xrotation Yrotation Zrotation
		JOINT Hips
		{
			OFFSET -0.000000 -0.000000 -0.000000
			CHANNELS 3 Xrotation Yrotation Zrotation
			JOINT Spine
			{
				OFFSET 0.000000 10.199997 -0.299500
				CHANNELS 3 Xrotation Yrotation Zrotation
				JOINT Spine1
				{
					OFFSET 0.000000 11.900002 -1.516600
					CHANNELS 3 Xrotation Yrotation Zrotation
					JOINT Spine2
					{
						OFFSET 0.000000 13.600006 -2.842500
						CHANNELS 3 Xrotation Yrotation Zrotation
						JOINT Neck_virtual
						{
							OFFSET 0.000000 0.000000 0.000000
							CHANNELS 3 Xrotation Yrotation Zrotation
							JOINT Neck
							{
								OFFSET 0.000000 9.624100 -2.890100
								CHANNELS 3 Xrotation Yrotation Zrotation
								JOINT Head
								{
									OFFSET 0.000000 14.068802 -1.351900
									CHANNELS 3 Xrotation Yrotation Zrotation
									End Site
									{
										OFFSET 0 0 0
									}
								}
							}
						}
						JOINT LeftShoulder_virtual
						{
							OFFSET 0.000000 0.000000 0.000000
							CHANNELS 3 Xrotation Yrotation Zrotation
							JOINT LeftShoulder
							{
								OFFSET 15.263000 10.923401 -0.547700
								CHANNELS 3 Xrotation Yrotation Zrotation
								JOINT LeftArm
								{
									OFFSET 25.438599 -2.830597 -13.032500
									CHANNELS 3 Xrotation Yrotation Zrotation
									JOINT LeftForeArm
									{
										OFFSET 29.960503 0.000000 0.000000
										CHANNELS 3 Xrotation Yrotation Zrotation
										JOINT LeftHand
										{
											OFFSET 27.849251 0.000000 0.000000
											CHANNELS 3 Xrotation Yrotation Zrotation
											End Site
											{
												OFFSET 0 0 0
											}
										}
									}
								}
							}
						}
						JOINT RightShoulder_virtual
						{
							OFFSET 0.000000 0.000000 0.000000
							CHANNELS 3 Xrotation Yrotation Zrotation
							JOINT RightShoulder
							{
								OFFSET -15.263000 10.923401 -0.547700
								CHANNELS 3 Xrotation Yrotation Zrotation
								JOINT RightArm
								{
									OFFSET -25.438599 -2.830597 -13.032500
									CHANNELS 3 Xrotation Yrotation Zrotation
									JOINT RightForeArm
									{
										OFFSET -29.960503 0.000000 0.000000
										CHANNELS 3 Xrotation Yrotation Zrotation
										JOINT RightHand
										{
											OFFSET -27.849251 0.000000 0.000000
											CHANNELS 3 Xrotation Yrotation Zrotation
											End Site
											{
												OFFSET 0 0 0
											}
										}
									}
								}
							}
						}
					}
				}
			}
		}
	}
}
MOTION
Frames: 9
Frame Time: 0.03333333
-11.910430 77.929535 84.721207 0.000000 0.000000 0.000000 28.724644 -2.303137 -0.354608 4.256277 5.662487 -4.227714 2.459812 24.398453 0.659105 -3.225091 20.636110 -27.267046 0.000000 0.000000 0.000000 28.949682 -1.767593 -0.814401 -87.938003 7.427582 -13.801570 73.158354 -5.099430 7.057729 -21.669139 -11.148194 7.291497 0.000000 0.000000 0.000000 28.474625 -1.938413 -0.290856 -0.694044 0.219143 -0.008643 1.761658 -5.980952 -0.514005 11.623628 -1.134312 3.653220 0.000000 0.000000 0.000000 13.946191 1.479263 2.193948 -4.910814 -4.759655 3.650182 0.000000 0.000000 0.000000 13.796460 1.781414 1.249841 -2.153529 -19.988134 11.109869 -19.205816 -8.581731 -40.135489 138.631339 -53.280530 164.496951 0.000000 0.000000 0.000000 11.477117 3.043471 1.691336 3.723784 7.811495 -3.350985 -54.382649 9.625517 29.416204 104.358563 27.707000 -114.869616 0.000000 0.000000 0.000000 
-11.938245 77.831894 84.993462 0.000000 0.000000 0.000000 28.664672 -2.310442 -0.260283 3.824713 6.055752 -4.061032 3.489138 23.938162 0.641442 -3.808502 21.325517 -27.942712 0.000000 0.000000 0.000000 28.856228 -1.795909 -0.712877 -88.444154 7.837234 -13.837043 74.025891 -5.259679 7.046842 -22.334686 -11.338666 7.330289 0.000000 0.000000 0.000000 28.410993 -1.913751 -0.217773 -0.699927 0.217403 -0.011341 1.708090 -5.725433 -0.735325 11.331370 -1.039684 3.664986 0.000000 0.000000 0.000000 13.674957 1.597497 2.175398 -4.936027 -4.720304 3.589544 0.000000 0.000000 0.000000 13.418100 1.885197 1.181901 -2.050278 -19.946207 11.403264 -20.428934 -9.089497 -39.684154 137.717705 -54.825426 163.709826 0.000000 0.000000 0.000000 11.138395 3.174798 1.694313 3.628295 7.878153 -3.525562 -54.641483 9.739366 29.341284 104.074461 28.336652 -114.685611 0.000000 0.000000 0.000000 
-11.967840 77.717590 85.271889 0.000000 0.000000 0.000000 28.632310 -2.341610 -0.159482 3.349297 6.428366 -3.925784 4.512510 23.499522 0.649058 -4.363067 22.002708 -28.562418 0.000000 0.000000 0.000000 28.790777 -1.837983 -0.605065 -88.912541 8.177398 -13.852773 74.752179 -5.475553 7.022944 -22.932169 -11.549633 7.349763 0.000000 0.000000 0.000000 28.382650 -1.928534 -0.124888 -0.704475 0.215877 -0.012431 1.661879 -5.455869 -1.016363 11.005968 -0.934937 3.699020 0.000000 0.000000 0.000000 13.387688 1.728564 2.183830 -4.954947 -4.683431 3.525475 0.000000 0.000000 0.000000 13.010364 1.997713 1.139163 -1.937762 -19.915986 11.700752 -21.800572 -9.690069 -39.322840 136.686388 -56.480159 162.798474 0.000000 0.000000 0.000000 10.785910 3.318720 1.714937 3.532141 7.990877 -3.698820 -54.934993 9.756369 29.265178 103.704074 28.999043 -114.448999 0.000000 0.000000 0.000000 
-11.998051 77.571732 85.554092 0.000000 0.000000 0.000000 28.630049 -2.403237 -0.052515 2.810841 6.813499 -3.813091 5.576672 23.080440 0.660150 -4.840762 22.667424 -29.144738 0.000000 0.000000 0.000000 28.767278 -1.897040 -0.492065 -89.367773 8.446137 -13.858893 75.358331 -5.736588 7.016130 -23.610857 -11.798989 7.310036 0.000000 0.000000 0.000000 28.386536 -2.007298 -0.005158 -0.708820 0.214554 -0.011494 1.621315 -5.182216 -1.353361 10.652929 -0.832139 3.745907 0.000000 0.000000 0.000000 13.072448 1.864564 2.211299 -4.966105 -4.651567 3.462973 0.000000 0.000000 0.000000 12.574334 2.112039 1.112967 -1.810391 -19.901566 12.004600 -23.284543 -10.387967 -39.028637 135.554338 -58.187051 161.769301 0.000000 0.000000 0.000000 10.413650 3.468548 1.745920 3.443199 8.146331 -3.867525 -55.235863 9.659437 29.215140 103.262317 29.693199 -114.177609 0.000000 0.000000 0.000000 
-12.034266 77.385040 85.843987 0.000000 0.000000 0.000000 28.658272 -2.493961 0.052202 2.218477 7.237408 -3.708611 6.712502 22.651158 0.660219 -5.249017 23.309696 -29.705210 0.000000 0.000000 0.000000 28.781642 -1.977281 -0.379409 -89.848079 8.661177 -13.862603 75.953288 -5.995666 7.050000 -24.452979 -12.090366 7.215157 0.000000 0.000000 0.000000 28.421479 -2.147171 0.129713 -0.712878 0.211351 -0.009378 1.580561 -4.927868 -1.719445 10.276225 -0.746175 3.793825 0.000000 0.000000 0.000000 12.719860 1.994900 2.242696 -4.967828 -4.627931 3.406438 0.000000 0.000000 0.000000 12.120098 2.219819 1.090925 -1.665105 -19.902516 12.299519 -24.847298 -11.173255 -38.757383 134.280317 -59.911202 160.573103 0.000000 0.000000 0.000000 10.015387 3.613642 1.773836 3.367140 8.344335 -4.043489 -55.547838 9.472081 29.208594 102.768713 30.406117 -113.886697 0.000000 0.000000 0.000000 
-12.074743 77.150726 86.140495 0.000000 0.000000 0.000000 28.726802 -2.614283 0.143605 1.589529 7.701263 -3.596351 7.900124 22.205406 0.653217 -5.600690 23.929858 -30.244955 0.000000 0.000000 0.000000 28.838237 -2.068014 -0.280472 -90.414561 8.862082 -13.881851 76.655261 -6.192393 7.130557 -25.366179 -12.399766 7.146432 0.000000 0.000000 0.000000 28.486631 -2.325024 0.253270 -0.716986 0.208758 -0.007017 1.539779 -4.708189 -2.076103 9.888892 -0.682444 3.829076 0.000000 0.000000 0.000000 12.327630 2.110477 2.268554 -4.957044 -4.611732 3.358154 0.000000 0.000000 0.000000 11.651282 2.314959 1.065207 -1.504211 -19.909025 12.569236 -26.425344 -12.008729 -38.463643 132.806007 -61.642935 159.139378 0.000000 0.000000 0.000000 9.580241 3.737549 1.787056 3.311180 8.579602 -4.232390 -55.860781 9.227234 29.219884 102.257597 31.123109 -113.602356 0.000000 0.000000 0.000000 
-12.112285 76.879326 86.450867 0.000000 0.000000 0.000000 28.847260 -2.756223 0.213274 0.950434 8.201178 -3.464315 9.083199 21.743865 0.650986 -5.915593 24.524293 -30.749689 0.000000 0.000000 0.000000 28.947906 -2.173915 -0.209192 -91.145548 9.099192 -13.920469 77.557515 -6.264809 7.234144 -26.142073 -12.686213 7.157004 0.000000 0.000000 0.000000 28.590426 -2.507023 0.340488 -0.721413 0.206704 -0.005339 1.494872 -4.532366 -2.382493 9.496573 -0.640794 3.842632 0.000000 0.000000 0.000000 11.899159 2.206029 2.279788 -4.932529 -4.602664 3.317648 0.000000 0.000000 0.000000 11.163714 2.396549 1.032685 -1.334397 -19.909247 12.789187 -27.919932 -12.860482 -38.119924 131.045785 -63.375310 157.372408 0.000000 0.000000 0.000000 9.116650 3.835749 1.779539 3.278421 8.843303 -4.433455 -56.163198 8.981034 29.236420 101.724248 31.830136 -113.311875 0.000000 0.000000 0.000000 
-12.142829 76.584579 86.787338 0.000000 0.000000 0.000000 29.030076 -2.913513 0.257325 0.303890 8.719902 -3.307867 10.224449 21.279774 0.660055 -6.115769 25.079585 -31.204368 0.000000 0.000000 0.000000 29.108842 -2.298998 -0.165496 -92.050056 9.405643 -13.951570 78.690159 -6.186836 7.332707 -26.643021 -12.932729 7.277976 0.000000 0.000000 0.000000 28.745391 -2.666644 0.378492 -0.724536 0.205758 -0.005193 1.435979 -4.407247 -2.619510 9.102449 -0.615045 3.830149 0.000000 0.000000 0.000000 11.441001 2.284179 2.271364 -4.893007 -4.600906 3.282219 0.000000 0.000000 0.000000 10.665204 2.465209 0.993027 -1.163505 -19.907652 12.933031 -29.242683 -13.720478 -37.711517 129.031194 -65.036788 155.287465 0.000000 0.000000 0.000000 8.634523 3.910903 1.748891 3.263741 9.129256 -4.632761 -56.423841 8.766405 29.283627 101.126456 32.508682 -112.964389 0.000000 0.000000 0.000000 
-12.159383 76.274162 87.153397 0.000000 0.000000 0.000000 29.276557 -3.079562 0.281477 -0.376141 9.248865 -3.132629 11.337260 20.841226 0.668149 -6.094037 25.590646 -31.603716 0.000000 0.000000 0.000000 29.330219 -2.433784 -0.139948 -93.106250 9.756350 -13.967757 79.990511 -5.990127 7.418349 -26.890067 -13.151415 7.479692 0.000000 0.000000 0.000000 28.963011 -2.793909 0.375354 -0.727381 0.206422 -0.006316 1.350404 -4.323802 -2.788902 8.704055 -0.596885 3.790234 0.000000 0.000000 0.000000 10.956615 2.350219 2.244727 -4.838779 -4.603987 3.248044 0.000000 0.000000 0.000000 10.158632 2.522993 0.948588 -0.999450 -19.912319 12.980138 -30.334277 -14.651014 -37.236446 126.802885 -66.570616 152.909917 0.000000 0.000000 0.000000 8.142508 3.970453 1.699274 3.261744 9.443781 -4.786820 -56.615397 8.602266 29.378758 100.424387 33.155425 -112.508761 0.000000 0.000000 0.000000 
